<svg width="239" height="70" viewBox="0 0 239 70" fill="none" xmlns="http://www.w3.org/2000/svg">
<path d="M2.64205 50V15.0909H26.4716V21.9432H11.0795V29.1023H24.9545V35.9716H11.0795V50H2.64205ZM37.679 50.4432C36.0085 50.4432 34.5256 50.1648 33.2301 49.608C31.946 49.0398 30.929 48.1875 30.179 47.0511C29.4403 45.9034 29.071 44.4659 29.071 42.7386C29.071 41.2841 29.3267 40.0568 29.8381 39.0568C30.3494 38.0568 31.054 37.2443 31.9517 36.6193C32.8494 35.9943 33.8835 35.5227 35.054 35.2045C36.2244 34.875 37.4744 34.6534 38.804 34.5398C40.2926 34.4034 41.4915 34.2614 42.4006 34.1136C43.3097 33.9545 43.9688 33.733 44.3778 33.4489C44.7983 33.1534 45.0085 32.7386 45.0085 32.2045V32.1193C45.0085 31.2443 44.7074 30.5682 44.1051 30.0909C43.5028 29.6136 42.6903 29.375 41.6676 29.375C40.5653 29.375 39.679 29.6136 39.0085 30.0909C38.3381 30.5682 37.9119 31.2273 37.7301 32.0682L30.0426 31.7955C30.2699 30.2045 30.8551 28.7841 31.7983 27.5341C32.7528 26.2727 34.0597 25.2841 35.7188 24.5682C37.3892 23.8409 39.3949 23.4773 41.7358 23.4773C43.4063 23.4773 44.946 23.6761 46.3551 24.0739C47.7642 24.4602 48.9915 25.0284 50.0369 25.7784C51.0824 26.517 51.8892 27.4261 52.4574 28.5057C53.0369 29.5852 53.3267 30.8182 53.3267 32.2045V50H45.4858V46.3523H45.2812C44.8153 47.2386 44.2188 47.9886 43.4915 48.6023C42.7756 49.2159 41.929 49.6761 40.9517 49.983C39.9858 50.2898 38.8949 50.4432 37.679 50.4432ZM40.2528 44.9886C41.1506 44.9886 41.9574 44.8068 42.6733 44.4432C43.4006 44.0795 43.9801 43.5795 44.4119 42.9432C44.8438 42.2955 45.0597 41.5455 45.0597 40.6932V38.2045C44.821 38.3295 44.5313 38.4432 44.1903 38.5455C43.8608 38.6477 43.4972 38.7443 43.0994 38.8352C42.7017 38.9261 42.2926 39.0057 41.8722 39.0739C41.4517 39.142 41.0483 39.2045 40.6619 39.2614C39.8778 39.3864 39.2074 39.5795 38.6506 39.8409C38.1051 40.1023 37.6847 40.4432 37.3892 40.8636C37.1051 41.2727 36.9631 41.7614 36.9631 42.3295C36.9631 43.1932 37.2699 43.8523 37.8835 44.3068C38.5085 44.7614 39.2983 44.9886 40.2528 44.9886ZM58.4233 50V23.8182H66.5199V28.5909H66.7926C67.2699 26.8636 68.0483 25.5795 69.1278 24.7386C70.2074 23.8864 71.4631 23.4602 72.8949 23.4602C73.2813 23.4602 73.679 23.4886 74.0881 23.5455C74.4972 23.5909 74.8778 23.6648 75.2301 23.767V31.0114C74.8324 30.875 74.3097 30.767 73.6619 30.6875C73.0256 30.608 72.4574 30.5682 71.9574 30.5682C70.9688 30.5682 70.0767 30.7898 69.2812 31.233C68.4972 31.6648 67.8778 32.2727 67.4233 33.0568C66.9801 33.8295 66.7585 34.7386 66.7585 35.7841V50H58.4233ZM78.6264 50V23.8182H86.5526V28.625H86.8423C87.3878 27.0341 88.3082 25.7784 89.6037 24.858C90.8991 23.9375 92.4446 23.4773 94.2401 23.4773C96.0582 23.4773 97.6151 23.9432 98.9105 24.875C100.206 25.8068 101.03 27.0568 101.382 28.625H101.655C102.143 27.0682 103.098 25.8239 104.518 24.892C105.939 23.9489 107.615 23.4773 109.547 23.4773C112.024 23.4773 114.036 24.2727 115.581 25.8636C117.126 27.4432 117.899 29.6136 117.899 32.375V50H109.564V34.2841C109.564 32.9773 109.229 31.983 108.558 31.3011C107.888 30.608 107.018 30.2614 105.95 30.2614C104.803 30.2614 103.899 30.6364 103.24 31.3864C102.592 32.125 102.268 33.1193 102.268 34.3693V50H94.2571V34.1989C94.2571 32.983 93.9276 32.0227 93.2685 31.3182C92.6094 30.6136 91.7401 30.2614 90.6605 30.2614C89.9332 30.2614 89.2912 30.4375 88.7344 30.7898C88.1776 31.1307 87.7401 31.6193 87.4219 32.2557C87.1151 32.892 86.9616 33.642 86.9616 34.5057V50H78.6264Z" fill="#72ED3D"/>
<path d="M127.036 50.2727C126.195 50.2727 125.473 49.9716 124.871 49.3693C124.268 48.767 123.967 48.0455 123.967 47.2045C123.967 46.3636 124.268 45.642 124.871 45.0398C125.473 44.4375 126.195 44.1364 127.036 44.1364C127.876 44.1364 128.598 44.4375 129.2 45.0398C129.803 45.642 130.104 46.3636 130.104 47.2045C130.104 47.7614 129.962 48.2727 129.678 48.7386C129.405 49.2045 129.036 49.5795 128.57 49.8636C128.115 50.1364 127.604 50.2727 127.036 50.2727ZM136.811 50V23.8182H142.794V28.1818H143.067C143.544 26.6705 144.362 25.5057 145.521 24.6875C146.692 23.858 148.027 23.4432 149.527 23.4432C149.868 23.4432 150.249 23.4602 150.669 23.4943C151.101 23.517 151.459 23.5568 151.743 23.6136V29.2898C151.482 29.1989 151.067 29.1193 150.499 29.0511C149.942 28.9716 149.402 28.9318 148.879 28.9318C147.754 28.9318 146.743 29.1761 145.845 29.6648C144.959 30.142 144.26 30.8068 143.749 31.6591C143.237 32.5114 142.982 33.4943 142.982 34.608V50H136.811ZM166.355 50.5114C163.73 50.5114 161.463 49.9659 159.554 48.875C157.656 47.7727 156.196 46.2159 155.173 44.2045C154.151 42.1818 153.639 39.8011 153.639 37.0625C153.639 34.3693 154.151 32.0057 155.173 29.9716C156.207 27.9261 157.651 26.3352 159.503 25.1989C161.355 24.0511 163.531 23.4773 166.031 23.4773C167.645 23.4773 169.168 23.7386 170.599 24.2614C172.043 24.7727 173.315 25.5682 174.418 26.6477C175.531 27.7273 176.406 29.1023 177.043 30.7727C177.679 32.4318 177.997 34.4091 177.997 36.7045V38.5966H156.537V34.4375H172.082C172.071 33.2557 171.815 32.2045 171.315 31.2841C170.815 30.3523 170.116 29.6193 169.219 29.0852C168.332 28.5511 167.298 28.2841 166.116 28.2841C164.855 28.2841 163.747 28.5909 162.793 29.2045C161.838 29.8068 161.094 30.6023 160.56 31.5909C160.037 32.5682 159.77 33.642 159.759 34.8125V38.4432C159.759 39.9659 160.037 41.2727 160.594 42.3636C161.151 43.4432 161.929 44.2727 162.929 44.8523C163.929 45.4205 165.099 45.7045 166.44 45.7045C167.338 45.7045 168.151 45.5795 168.878 45.3295C169.605 45.0682 170.236 44.6875 170.77 44.1875C171.304 43.6875 171.707 43.0682 171.98 42.3295L177.741 42.9773C177.378 44.5 176.685 45.8295 175.662 46.9659C174.651 48.0909 173.355 48.9659 171.776 49.5909C170.196 50.2045 168.389 50.5114 166.355 50.5114ZM189.388 34.6591V50H183.217V23.8182H189.115V28.267H189.422C190.024 26.8011 190.984 25.6364 192.303 24.7727C193.632 23.9091 195.274 23.4773 197.229 23.4773C199.036 23.4773 200.609 23.8636 201.95 24.6364C203.303 25.4091 204.348 26.5284 205.087 27.9943C205.837 29.4602 206.206 31.2386 206.195 33.3295V50H200.024V34.2841C200.024 32.5341 199.57 31.1648 198.661 30.1761C197.763 29.1875 196.518 28.6932 194.928 28.6932C193.848 28.6932 192.888 28.9318 192.047 29.4091C191.217 29.875 190.564 30.5511 190.087 31.4375C189.621 32.3239 189.388 33.3977 189.388 34.6591ZM225.541 23.8182V28.5909H210.49V23.8182H225.541ZM214.206 17.5455H220.376V42.125C220.376 42.9545 220.501 43.5909 220.751 44.0341C221.013 44.4659 221.354 44.7614 221.774 44.9205C222.195 45.0795 222.661 45.1591 223.172 45.1591C223.558 45.1591 223.911 45.1307 224.229 45.0739C224.558 45.017 224.808 44.9659 224.979 44.9205L226.018 49.7443C225.689 49.858 225.217 49.983 224.604 50.1193C224.001 50.2557 223.263 50.3352 222.388 50.358C220.842 50.4034 219.45 50.1705 218.212 49.6591C216.973 49.1364 215.99 48.3295 215.263 47.2386C214.547 46.1477 214.195 44.7841 214.206 43.1477V17.5455Z" fill="#F9F9F9"/>
<rect x="2" width="55" height="11" fill="#72ED3D"/>
<path d="M3.269 67V57.55H7.697C8.831 57.55 9.695 57.775 10.289 58.225C10.883 58.666 11.18 59.26 11.18 60.007C11.18 60.511 11.063 60.943 10.829 61.303C10.595 61.654 10.28 61.9285 9.884 62.1265C9.497 62.3155 9.074 62.41 8.615 62.41L8.858 61.924C9.389 61.924 9.866 62.023 10.289 62.221C10.712 62.41 11.045 62.689 11.288 63.058C11.54 63.427 11.666 63.886 11.666 64.435C11.666 65.245 11.3555 65.875 10.7345 66.325C10.1135 66.775 9.191 67 7.967 67H3.269ZM5.024 65.623H7.859C8.516 65.623 9.02 65.515 9.371 65.299C9.722 65.083 9.8975 64.7365 9.8975 64.2595C9.8975 63.7915 9.722 63.4495 9.371 63.2335C9.02 63.0085 8.516 62.896 7.859 62.896H4.889V61.5325H7.508C8.12 61.5325 8.588 61.4245 8.912 61.2085C9.245 60.9925 9.4115 60.6685 9.4115 60.2365C9.4115 59.7955 9.245 59.467 8.912 59.251C8.588 59.035 8.12 58.927 7.508 58.927H5.024V65.623ZM16.7655 67.0945C15.9645 67.0945 15.2625 66.937 14.6595 66.622C14.0655 66.298 13.602 65.857 13.269 65.299C12.945 64.741 12.783 64.1065 12.783 63.3955C12.783 62.6755 12.9405 62.041 13.2555 61.492C13.5795 60.934 14.0205 60.4975 14.5785 60.1825C15.1455 59.8675 15.789 59.71 16.509 59.71C17.211 59.71 17.8365 59.863 18.3855 60.169C18.9345 60.475 19.3665 60.907 19.6815 61.465C19.9965 62.023 20.154 62.68 20.154 63.436C20.154 63.508 20.1495 63.589 20.1405 63.679C20.1405 63.769 20.136 63.8545 20.127 63.9355H14.1195V62.815H19.236L18.5745 63.166C18.5835 62.752 18.498 62.3875 18.318 62.0725C18.138 61.7575 17.8905 61.51 17.5755 61.33C17.2695 61.15 16.914 61.06 16.509 61.06C16.095 61.06 15.7305 61.15 15.4155 61.33C15.1095 61.51 14.8665 61.762 14.6865 62.086C14.5155 62.401 14.43 62.7745 14.43 63.2065V63.4765C14.43 63.9085 14.529 64.291 14.727 64.624C14.925 64.957 15.204 65.2135 15.564 65.3935C15.924 65.5735 16.338 65.6635 16.806 65.6635C17.211 65.6635 17.5755 65.6005 17.8995 65.4745C18.2235 65.3485 18.5115 65.1505 18.7635 64.8805L19.668 65.92C19.344 66.298 18.9345 66.5905 18.4395 66.7975C17.9535 66.9955 17.3955 67.0945 16.7655 67.0945ZM24.0025 67.0945C23.3995 67.0945 22.819 67.018 22.261 66.865C21.712 66.703 21.2755 66.5095 20.9515 66.2845L21.5995 65.002C21.9235 65.209 22.3105 65.38 22.7605 65.515C23.2105 65.65 23.6605 65.7175 24.1105 65.7175C24.6415 65.7175 25.024 65.6455 25.258 65.5015C25.501 65.3575 25.6225 65.164 25.6225 64.921C25.6225 64.723 25.5415 64.5745 25.3795 64.4755C25.2175 64.3675 25.006 64.2865 24.745 64.2325C24.484 64.1785 24.1915 64.129 23.8675 64.084C23.5525 64.039 23.233 63.9805 22.909 63.9085C22.594 63.8275 22.306 63.715 22.045 63.571C21.784 63.418 21.5725 63.2155 21.4105 62.9635C21.2485 62.7115 21.1675 62.3785 21.1675 61.9645C21.1675 61.5055 21.298 61.1095 21.559 60.7765C21.82 60.4345 22.1845 60.1735 22.6525 59.9935C23.1295 59.8045 23.692 59.71 24.34 59.71C24.826 59.71 25.3165 59.764 25.8115 59.872C26.3065 59.98 26.716 60.133 27.04 60.331L26.392 61.6135C26.05 61.4065 25.7035 61.267 25.3525 61.195C25.0105 61.114 24.6685 61.0735 24.3265 61.0735C23.8135 61.0735 23.431 61.15 23.179 61.303C22.936 61.456 22.8145 61.6495 22.8145 61.8835C22.8145 62.0995 22.8955 62.2615 23.0575 62.3695C23.2195 62.4775 23.431 62.563 23.692 62.626C23.953 62.689 24.241 62.743 24.556 62.788C24.88 62.824 25.1995 62.8825 25.5145 62.9635C25.8295 63.0445 26.1175 63.157 26.3785 63.301C26.6485 63.436 26.8645 63.6295 27.0265 63.8815C27.1885 64.1335 27.2695 64.462 27.2695 64.867C27.2695 65.317 27.1345 65.7085 26.8645 66.0415C26.6035 66.3745 26.23 66.6355 25.744 66.8245C25.258 67.0045 24.6775 67.0945 24.0025 67.0945ZM31.4362 67.0945C30.6442 67.0945 30.0322 66.892 29.6002 66.487C29.1682 66.073 28.9522 65.4655 28.9522 64.6645V58.198H30.6397V64.624C30.6397 64.966 30.7252 65.2315 30.8962 65.4205C31.0762 65.6095 31.3237 65.704 31.6387 65.704C32.0167 65.704 32.3317 65.605 32.5837 65.407L33.0562 66.6085C32.8582 66.7705 32.6152 66.892 32.3272 66.973C32.0392 67.054 31.7422 67.0945 31.4362 67.0945ZM27.7642 61.195V59.845H32.5702V61.195H27.7642ZM42.6169 67V65.542L42.5224 65.2315V62.68C42.5224 62.185 42.3739 61.8025 42.0769 61.5325C41.7799 61.2535 41.3299 61.114 40.7269 61.114C40.3219 61.114 39.9214 61.177 39.5254 61.303C39.1384 61.429 38.8099 61.6045 38.5399 61.8295L37.8784 60.601C38.2654 60.304 38.7244 60.0835 39.2554 59.9395C39.7954 59.7865 40.3534 59.71 40.9294 59.71C41.9734 59.71 42.7789 59.962 43.3459 60.466C43.9219 60.961 44.2099 61.7305 44.2099 62.7745V67H42.6169ZM40.3489 67.0945C39.8089 67.0945 39.3364 67.0045 38.9314 66.8245C38.5264 66.6355 38.2114 66.379 37.9864 66.055C37.7704 65.722 37.6624 65.3485 37.6624 64.9345C37.6624 64.5295 37.7569 64.165 37.9459 63.841C38.1439 63.517 38.4634 63.2605 38.9044 63.0715C39.3454 62.8825 39.9304 62.788 40.6594 62.788H42.7519V63.9085H40.7809C40.2049 63.9085 39.8179 64.003 39.6199 64.192C39.4219 64.372 39.3229 64.597 39.3229 64.867C39.3229 65.173 39.4444 65.416 39.6874 65.596C39.9304 65.776 40.2679 65.866 40.6999 65.866C41.1139 65.866 41.4829 65.7715 41.8069 65.5825C42.1399 65.3935 42.3784 65.1145 42.5224 64.7455L42.8059 65.758C42.6439 66.181 42.3514 66.5095 41.9284 66.7435C41.5144 66.9775 40.9879 67.0945 40.3489 67.0945ZM49.6557 69.7135C48.9897 69.7135 48.3372 69.6235 47.6982 69.4435C47.0682 69.2725 46.5507 69.0205 46.1457 68.6875L46.9017 67.4185C47.2167 67.6795 47.6127 67.8865 48.0897 68.0395C48.5757 68.2015 49.0662 68.2825 49.5612 68.2825C50.3532 68.2825 50.9337 68.098 51.3027 67.729C51.6717 67.369 51.8562 66.8245 51.8562 66.0955V64.813L51.9912 63.1795L51.9372 61.546V59.791H53.5437V65.9065C53.5437 67.2115 53.2107 68.17 52.5447 68.782C51.8787 69.403 50.9157 69.7135 49.6557 69.7135ZM49.4397 66.676C48.7557 66.676 48.1347 66.532 47.5767 66.244C47.0277 65.947 46.5912 65.5375 46.2672 65.0155C45.9522 64.4935 45.7947 63.8815 45.7947 63.1795C45.7947 62.4865 45.9522 61.879 46.2672 61.357C46.5912 60.835 47.0277 60.43 47.5767 60.142C48.1347 59.854 48.7557 59.71 49.4397 59.71C50.0517 59.71 50.6007 59.8315 51.0867 60.0745C51.5727 60.3175 51.9597 60.6955 52.2477 61.2085C52.5447 61.7215 52.6932 62.3785 52.6932 63.1795C52.6932 63.9805 52.5447 64.642 52.2477 65.164C51.9597 65.677 51.5727 66.0595 51.0867 66.3115C50.6007 66.5545 50.0517 66.676 49.4397 66.676ZM49.6962 65.245C50.1192 65.245 50.4972 65.1595 50.8302 64.9885C51.1632 64.8085 51.4197 64.5655 51.5997 64.2595C51.7887 63.9445 51.8832 63.5845 51.8832 63.1795C51.8832 62.7745 51.7887 62.419 51.5997 62.113C51.4197 61.798 51.1632 61.5595 50.8302 61.3975C50.4972 61.2265 50.1192 61.141 49.6962 61.141C49.2732 61.141 48.8907 61.2265 48.5487 61.3975C48.2157 61.5595 47.9547 61.798 47.7657 62.113C47.5857 62.419 47.4957 62.7745 47.4957 63.1795C47.4957 63.5845 47.5857 63.9445 47.7657 64.2595C47.9547 64.5655 48.2157 64.8085 48.5487 64.9885C48.8907 65.1595 49.2732 65.245 49.6962 65.245ZM55.7623 67V59.791H57.3688V61.7755L57.1798 61.195C57.3958 60.709 57.7333 60.34 58.1923 60.088C58.6603 59.836 59.2408 59.71 59.9338 59.71V61.3165C59.8618 61.2985 59.7943 61.2895 59.7313 61.2895C59.6683 61.2805 59.6053 61.276 59.5423 61.276C58.9033 61.276 58.3948 61.465 58.0168 61.843C57.6388 62.212 57.4498 62.7655 57.4498 63.5035V67H55.7623ZM61.3653 67V59.791H63.0528V67H61.3653ZM62.2158 58.603C61.9008 58.603 61.6398 58.504 61.4328 58.306C61.2348 58.108 61.1358 57.8695 61.1358 57.5905C61.1358 57.3025 61.2348 57.064 61.4328 56.875C61.6398 56.677 61.9008 56.578 62.2158 56.578C62.5308 56.578 62.7873 56.6725 62.9853 56.8615C63.1923 57.0415 63.2958 57.271 63.2958 57.55C63.2958 57.847 63.1968 58.099 62.9988 58.306C62.8008 58.504 62.5398 58.603 62.2158 58.603ZM68.5751 67.0945C67.8191 67.0945 67.1441 66.937 66.5501 66.622C65.9651 66.298 65.5061 65.857 65.1731 65.299C64.8401 64.741 64.6736 64.1065 64.6736 63.3955C64.6736 62.6755 64.8401 62.041 65.1731 61.492C65.5061 60.934 65.9651 60.4975 66.5501 60.1825C67.1441 59.8675 67.8191 59.71 68.5751 59.71C69.2771 59.71 69.8936 59.854 70.4246 60.142C70.9646 60.421 71.3741 60.835 71.6531 61.384L70.3571 62.14C70.1411 61.798 69.8756 61.546 69.5606 61.384C69.2546 61.222 68.9216 61.141 68.5616 61.141C68.1476 61.141 67.7741 61.231 67.4411 61.411C67.1081 61.591 66.8471 61.852 66.6581 62.194C66.4691 62.527 66.3746 62.9275 66.3746 63.3955C66.3746 63.8635 66.4691 64.2685 66.6581 64.6105C66.8471 64.9435 67.1081 65.2 67.4411 65.38C67.7741 65.56 68.1476 65.65 68.5616 65.65C68.9216 65.65 69.2546 65.569 69.5606 65.407C69.8756 65.245 70.1411 64.993 70.3571 64.651L71.6531 65.407C71.3741 65.947 70.9646 66.3655 70.4246 66.6625C69.8936 66.9505 69.2771 67.0945 68.5751 67.0945ZM76.1629 67.0945C75.5509 67.0945 75.0109 66.982 74.5429 66.757C74.0749 66.523 73.7104 66.172 73.4494 65.704C73.1884 65.227 73.0579 64.6285 73.0579 63.9085V59.791H74.7454V63.679C74.7454 64.327 74.8894 64.813 75.1774 65.137C75.4744 65.452 75.8929 65.6095 76.4329 65.6095C76.8289 65.6095 77.1709 65.5285 77.4589 65.3665C77.7559 65.2045 77.9854 64.9615 78.1474 64.6375C78.3184 64.3135 78.4039 63.913 78.4039 63.436V59.791H80.0914V67H78.4849V65.056L78.7684 65.65C78.5254 66.118 78.1699 66.478 77.7019 66.73C77.2339 66.973 76.7209 67.0945 76.1629 67.0945ZM82.3008 67V56.983H83.9883V67H82.3008ZM89.2726 67.0945C88.4806 67.0945 87.8686 66.892 87.4366 66.487C87.0046 66.073 86.7886 65.4655 86.7886 64.6645V58.198H88.4761V64.624C88.4761 64.966 88.5616 65.2315 88.7326 65.4205C88.9126 65.6095 89.1601 65.704 89.4751 65.704C89.8531 65.704 90.1681 65.605 90.4201 65.407L90.8926 66.6085C90.6946 66.7705 90.4516 66.892 90.1636 66.973C89.8756 67.054 89.5786 67.0945 89.2726 67.0945ZM85.6006 61.195V59.845H90.4066V61.195H85.6006ZM95.3318 67.0945C94.7198 67.0945 94.1798 66.982 93.7118 66.757C93.2438 66.523 92.8793 66.172 92.6183 65.704C92.3573 65.227 92.2268 64.6285 92.2268 63.9085V59.791H93.9143V63.679C93.9143 64.327 94.0583 64.813 94.3463 65.137C94.6433 65.452 95.0618 65.6095 95.6018 65.6095C95.9978 65.6095 96.3398 65.5285 96.6278 65.3665C96.9248 65.2045 97.1543 64.9615 97.3163 64.6375C97.4873 64.3135 97.5728 63.913 97.5728 63.436V59.791H99.2603V67H97.6538V65.056L97.9373 65.65C97.6943 66.118 97.3388 66.478 96.8708 66.73C96.4028 66.973 95.8898 67.0945 95.3318 67.0945ZM101.47 67V59.791H103.076V61.7755L102.887 61.195C103.103 60.709 103.441 60.34 103.9 60.088C104.368 59.836 104.948 59.71 105.641 59.71V61.3165C105.569 61.2985 105.502 61.2895 105.439 61.2895C105.376 61.2805 105.313 61.276 105.25 61.276C104.611 61.276 104.102 61.465 103.724 61.843C103.346 62.212 103.157 62.7655 103.157 63.5035V67H101.47ZM111 67V65.542L110.906 65.2315V62.68C110.906 62.185 110.757 61.8025 110.46 61.5325C110.163 61.2535 109.713 61.114 109.11 61.114C108.705 61.114 108.305 61.177 107.909 61.303C107.522 61.429 107.193 61.6045 106.923 61.8295L106.262 60.601C106.649 60.304 107.108 60.0835 107.639 59.9395C108.179 59.7865 108.737 59.71 109.313 59.71C110.357 59.71 111.162 59.962 111.729 60.466C112.305 60.961 112.593 61.7305 112.593 62.7745V67H111ZM108.732 67.0945C108.192 67.0945 107.72 67.0045 107.315 66.8245C106.91 66.6355 106.595 66.379 106.37 66.055C106.154 65.722 106.046 65.3485 106.046 64.9345C106.046 64.5295 106.14 64.165 106.329 63.841C106.527 63.517 106.847 63.2605 107.288 63.0715C107.729 62.8825 108.314 62.788 109.043 62.788H111.135V63.9085H109.164C108.588 63.9085 108.201 64.003 108.003 64.192C107.805 64.372 107.706 64.597 107.706 64.867C107.706 65.173 107.828 65.416 108.071 65.596C108.314 65.776 108.651 65.866 109.083 65.866C109.497 65.866 109.866 65.7715 110.19 65.5825C110.523 65.3935 110.762 65.1145 110.906 64.7455L111.189 65.758C111.027 66.181 110.735 66.5095 110.312 66.7435C109.898 66.9775 109.371 67.0945 108.732 67.0945ZM114.759 67V56.983H116.446V67H114.759ZM125.781 67.0945C124.98 67.0945 124.278 66.937 123.675 66.622C123.081 66.298 122.617 65.857 122.284 65.299C121.96 64.741 121.798 64.1065 121.798 63.3955C121.798 62.6755 121.956 62.041 122.271 61.492C122.595 60.934 123.036 60.4975 123.594 60.1825C124.161 59.8675 124.804 59.71 125.524 59.71C126.226 59.71 126.852 59.863 127.401 60.169C127.95 60.475 128.382 60.907 128.697 61.465C129.012 62.023 129.169 62.68 129.169 63.436C129.169 63.508 129.165 63.589 129.156 63.679C129.156 63.769 129.151 63.8545 129.142 63.9355H123.135V62.815H128.251L127.59 63.166C127.599 62.752 127.513 62.3875 127.333 62.0725C127.153 61.7575 126.906 61.51 126.591 61.33C126.285 61.15 125.929 61.06 125.524 61.06C125.11 61.06 124.746 61.15 124.431 61.33C124.125 61.51 123.882 61.762 123.702 62.086C123.531 62.401 123.445 62.7745 123.445 63.2065V63.4765C123.445 63.9085 123.544 64.291 123.742 64.624C123.94 64.957 124.219 65.2135 124.579 65.3935C124.939 65.5735 125.353 65.6635 125.821 65.6635C126.226 65.6635 126.591 65.6005 126.915 65.4745C127.239 65.3485 127.527 65.1505 127.779 64.8805L128.683 65.92C128.359 66.298 127.95 66.5905 127.455 66.7975C126.969 66.9955 126.411 67.0945 125.781 67.0945ZM133.841 67.0945C133.148 67.0945 132.523 66.9415 131.965 66.6355C131.416 66.3295 130.984 65.902 130.669 65.353C130.354 64.795 130.196 64.1425 130.196 63.3955C130.196 62.6485 130.354 62.0005 130.669 61.4515C130.984 60.9025 131.416 60.475 131.965 60.169C132.523 59.863 133.148 59.71 133.841 59.71C134.462 59.71 135.007 59.845 135.475 60.115C135.952 60.376 136.325 60.7765 136.595 61.3165C136.874 61.8565 137.014 62.5495 137.014 63.3955C137.014 64.2325 136.87 64.9255 136.582 65.4745C136.303 66.0145 135.925 66.4195 135.448 66.6895C134.971 66.9595 134.435 67.0945 133.841 67.0945ZM134.03 65.65C134.435 65.65 134.8 65.56 135.124 65.38C135.448 65.2 135.704 64.939 135.893 64.597C136.082 64.255 136.177 63.8545 136.177 63.3955C136.177 62.9275 136.082 62.527 135.893 62.194C135.704 61.852 135.448 61.591 135.124 61.411C134.8 61.231 134.435 61.141 134.03 61.141C133.625 61.141 133.261 61.231 132.937 61.411C132.622 61.591 132.37 61.852 132.181 62.194C131.992 62.527 131.897 62.9275 131.897 63.3955C131.897 63.8545 131.992 64.255 132.181 64.597C132.37 64.939 132.622 65.2 132.937 65.38C133.261 65.56 133.625 65.65 134.03 65.65ZM136.15 69.619V65.326L136.285 63.409L136.231 61.492V59.791H137.837V69.619H136.15ZM140.045 67V59.791H141.732V67H140.045ZM140.895 58.603C140.58 58.603 140.319 58.504 140.112 58.306C139.914 58.108 139.815 57.8695 139.815 57.5905C139.815 57.3025 139.914 57.064 140.112 56.875C140.319 56.677 140.58 56.578 140.895 56.578C141.21 56.578 141.467 56.6725 141.665 56.8615C141.872 57.0415 141.975 57.271 141.975 57.55C141.975 57.847 141.876 58.099 141.678 58.306C141.48 58.504 141.219 58.603 140.895 58.603ZM147.943 67.0945C147.358 67.0945 146.823 66.9595 146.337 66.6895C145.86 66.4195 145.477 66.0145 145.189 65.4745C144.91 64.9255 144.771 64.2325 144.771 63.3955C144.771 62.5495 144.906 61.8565 145.176 61.3165C145.455 60.7765 145.833 60.376 146.31 60.115C146.787 59.845 147.331 59.71 147.943 59.71C148.654 59.71 149.28 59.863 149.82 60.169C150.369 60.475 150.801 60.9025 151.116 61.4515C151.44 62.0005 151.602 62.6485 151.602 63.3955C151.602 64.1425 151.44 64.795 151.116 65.353C150.801 65.902 150.369 66.3295 149.82 66.6355C149.28 66.9415 148.654 67.0945 147.943 67.0945ZM143.947 69.619V59.791H145.554V61.492L145.5 63.409L145.635 65.326V69.619H143.947ZM147.754 65.65C148.159 65.65 148.519 65.56 148.834 65.38C149.158 65.2 149.415 64.939 149.604 64.597C149.793 64.255 149.887 63.8545 149.887 63.3955C149.887 62.9275 149.793 62.527 149.604 62.194C149.415 61.852 149.158 61.591 148.834 61.411C148.519 61.231 148.159 61.141 147.754 61.141C147.349 61.141 146.985 61.231 146.661 61.411C146.337 61.591 146.08 61.852 145.891 62.194C145.702 62.527 145.608 62.9275 145.608 63.3955C145.608 63.8545 145.702 64.255 145.891 64.597C146.08 64.939 146.337 65.2 146.661 65.38C146.985 65.56 147.349 65.65 147.754 65.65ZM162.301 59.71C162.877 59.71 163.386 59.8225 163.827 60.0475C164.277 60.2725 164.628 60.619 164.88 61.087C165.132 61.546 165.258 62.14 165.258 62.869V67H163.57V63.085C163.57 62.446 163.431 61.969 163.152 61.654C162.873 61.339 162.472 61.1815 161.95 61.1815C161.581 61.1815 161.253 61.2625 160.965 61.4245C160.686 61.5865 160.465 61.825 160.303 62.14C160.15 62.455 160.074 62.8555 160.074 63.3415V67H158.386V63.085C158.386 62.446 158.247 61.969 157.968 61.654C157.689 61.339 157.288 61.1815 156.766 61.1815C156.397 61.1815 156.069 61.2625 155.781 61.4245C155.502 61.5865 155.281 61.825 155.119 62.14C154.966 62.455 154.89 62.8555 154.89 63.3415V67H153.202V59.791H154.809V61.708L154.525 61.141C154.768 60.673 155.119 60.3175 155.578 60.0745C156.046 59.8315 156.577 59.71 157.171 59.71C157.846 59.71 158.431 59.8765 158.926 60.2095C159.43 60.5425 159.763 61.0465 159.925 61.7215L159.264 61.492C159.498 60.952 159.885 60.52 160.425 60.196C160.965 59.872 161.59 59.71 162.301 59.71ZM170.816 67.0945C170.015 67.0945 169.313 66.937 168.71 66.622C168.116 66.298 167.652 65.857 167.319 65.299C166.995 64.741 166.833 64.1065 166.833 63.3955C166.833 62.6755 166.991 62.041 167.306 61.492C167.63 60.934 168.071 60.4975 168.629 60.1825C169.196 59.8675 169.839 59.71 170.559 59.71C171.261 59.71 171.887 59.863 172.436 60.169C172.985 60.475 173.417 60.907 173.732 61.465C174.047 62.023 174.204 62.68 174.204 63.436C174.204 63.508 174.2 63.589 174.191 63.679C174.191 63.769 174.186 63.8545 174.177 63.9355H168.17V62.815H173.286L172.625 63.166C172.634 62.752 172.548 62.3875 172.368 62.0725C172.188 61.7575 171.941 61.51 171.626 61.33C171.32 61.15 170.964 61.06 170.559 61.06C170.145 61.06 169.781 61.15 169.466 61.33C169.16 61.51 168.917 61.762 168.737 62.086C168.566 62.401 168.48 62.7745 168.48 63.2065V63.4765C168.48 63.9085 168.579 64.291 168.777 64.624C168.975 64.957 169.254 65.2135 169.614 65.3935C169.974 65.5735 170.388 65.6635 170.856 65.6635C171.261 65.6635 171.626 65.6005 171.95 65.4745C172.274 65.3485 172.562 65.1505 172.814 64.8805L173.718 65.92C173.394 66.298 172.985 66.5905 172.49 66.7975C172.004 66.9955 171.446 67.0945 170.816 67.0945ZM179.916 59.71C180.492 59.71 181.005 59.8225 181.455 60.0475C181.914 60.2725 182.274 60.619 182.535 61.087C182.796 61.546 182.926 62.14 182.926 62.869V67H181.239V63.085C181.239 62.446 181.086 61.969 180.78 61.654C180.483 61.339 180.064 61.1815 179.524 61.1815C179.128 61.1815 178.777 61.2625 178.471 61.4245C178.165 61.5865 177.927 61.8295 177.756 62.1535C177.594 62.4685 177.513 62.869 177.513 63.355V67H175.825V59.791H177.432V61.735L177.148 61.141C177.4 60.682 177.765 60.331 178.242 60.088C178.728 59.836 179.286 59.71 179.916 59.71ZM187.78 67.0945C186.988 67.0945 186.376 66.892 185.944 66.487C185.512 66.073 185.296 65.4655 185.296 64.6645V58.198H186.984V64.624C186.984 64.966 187.069 65.2315 187.24 65.4205C187.42 65.6095 187.668 65.704 187.983 65.704C188.361 65.704 188.676 65.605 188.928 65.407L189.4 66.6085C189.202 66.7705 188.959 66.892 188.671 66.973C188.383 67.054 188.086 67.0945 187.78 67.0945ZM184.108 61.195V59.845H188.914V61.195H184.108ZM193.016 67.0945C192.413 67.0945 191.833 67.018 191.275 66.865C190.726 66.703 190.289 66.5095 189.965 66.2845L190.613 65.002C190.937 65.209 191.324 65.38 191.774 65.515C192.224 65.65 192.674 65.7175 193.124 65.7175C193.655 65.7175 194.038 65.6455 194.272 65.5015C194.515 65.3575 194.636 65.164 194.636 64.921C194.636 64.723 194.555 64.5745 194.393 64.4755C194.231 64.3675 194.02 64.2865 193.759 64.2325C193.498 64.1785 193.205 64.129 192.881 64.084C192.566 64.039 192.247 63.9805 191.923 63.9085C191.608 63.8275 191.32 63.715 191.059 63.571C190.798 63.418 190.586 63.2155 190.424 62.9635C190.262 62.7115 190.181 62.3785 190.181 61.9645C190.181 61.5055 190.312 61.1095 190.573 60.7765C190.834 60.4345 191.198 60.1735 191.666 59.9935C192.143 59.8045 192.706 59.71 193.354 59.71C193.84 59.71 194.33 59.764 194.825 59.872C195.32 59.98 195.73 60.133 196.054 60.331L195.406 61.6135C195.064 61.4065 194.717 61.267 194.366 61.195C194.024 61.114 193.682 61.0735 193.34 61.0735C192.827 61.0735 192.445 61.15 192.193 61.303C191.95 61.456 191.828 61.6495 191.828 61.8835C191.828 62.0995 191.909 62.2615 192.071 62.3695C192.233 62.4775 192.445 62.563 192.706 62.626C192.967 62.689 193.255 62.743 193.57 62.788C193.894 62.824 194.213 62.8825 194.528 62.9635C194.843 63.0445 195.131 63.157 195.392 63.301C195.662 63.436 195.878 63.6295 196.04 63.8815C196.202 64.1335 196.283 64.462 196.283 64.867C196.283 65.317 196.148 65.7085 195.878 66.0415C195.617 66.3745 195.244 66.6355 194.758 66.8245C194.272 67.0045 193.691 67.0945 193.016 67.0945ZM205.558 59.71C206.134 59.71 206.647 59.8225 207.097 60.0475C207.556 60.2725 207.916 60.619 208.177 61.087C208.438 61.546 208.568 62.14 208.568 62.869V67H206.881V63.085C206.881 62.446 206.728 61.969 206.422 61.654C206.125 61.339 205.706 61.1815 205.166 61.1815C204.77 61.1815 204.419 61.2625 204.113 61.4245C203.807 61.5865 203.569 61.8295 203.398 62.1535C203.236 62.4685 203.155 62.869 203.155 63.355V67H201.467V56.983H203.155V61.735L202.79 61.141C203.042 60.682 203.407 60.331 203.884 60.088C204.37 59.836 204.928 59.71 205.558 59.71ZM214.111 67.0945C213.31 67.0945 212.608 66.937 212.005 66.622C211.411 66.298 210.947 65.857 210.614 65.299C210.29 64.741 210.128 64.1065 210.128 63.3955C210.128 62.6755 210.286 62.041 210.601 61.492C210.925 60.934 211.366 60.4975 211.924 60.1825C212.491 59.8675 213.134 59.71 213.854 59.71C214.556 59.71 215.182 59.863 215.731 60.169C216.28 60.475 216.712 60.907 217.027 61.465C217.342 62.023 217.499 62.68 217.499 63.436C217.499 63.508 217.495 63.589 217.486 63.679C217.486 63.769 217.481 63.8545 217.472 63.9355H211.465V62.815H216.581L215.92 63.166C215.929 62.752 215.843 62.3875 215.663 62.0725C215.483 61.7575 215.236 61.51 214.921 61.33C214.615 61.15 214.259 61.06 213.854 61.06C213.44 61.06 213.076 61.15 212.761 61.33C212.455 61.51 212.212 61.762 212.032 62.086C211.861 62.401 211.775 62.7745 211.775 63.2065V63.4765C211.775 63.9085 211.874 64.291 212.072 64.624C212.27 64.957 212.549 65.2135 212.909 65.3935C213.269 65.5735 213.683 65.6635 214.151 65.6635C214.556 65.6635 214.921 65.6005 215.245 65.4745C215.569 65.3485 215.857 65.1505 216.109 64.8805L217.013 65.92C216.689 66.298 216.28 66.5905 215.785 66.7975C215.299 66.9955 214.741 67.0945 214.111 67.0945ZM219.12 67V59.791H220.727V61.7755L220.538 61.195C220.754 60.709 221.091 60.34 221.55 60.088C222.018 59.836 222.599 59.71 223.292 59.71V61.3165C223.22 61.2985 223.152 61.2895 223.089 61.2895C223.026 61.2805 222.963 61.276 222.9 61.276C222.261 61.276 221.753 61.465 221.375 61.843C220.997 62.212 220.808 62.7655 220.808 63.5035V67H219.12ZM228.046 67.0945C227.245 67.0945 226.543 66.937 225.94 66.622C225.346 66.298 224.882 65.857 224.549 65.299C224.225 64.741 224.063 64.1065 224.063 63.3955C224.063 62.6755 224.221 62.041 224.536 61.492C224.86 60.934 225.301 60.4975 225.859 60.1825C226.426 59.8675 227.069 59.71 227.789 59.71C228.491 59.71 229.117 59.863 229.666 60.169C230.215 60.475 230.647 60.907 230.962 61.465C231.277 62.023 231.434 62.68 231.434 63.436C231.434 63.508 231.43 63.589 231.421 63.679C231.421 63.769 231.416 63.8545 231.407 63.9355H225.4V62.815H230.516L229.855 63.166C229.864 62.752 229.778 62.3875 229.598 62.0725C229.418 61.7575 229.171 61.51 228.856 61.33C228.55 61.15 228.194 61.06 227.789 61.06C227.375 61.06 227.011 61.15 226.696 61.33C226.39 61.51 226.147 61.762 225.967 62.086C225.796 62.401 225.71 62.7745 225.71 63.2065V63.4765C225.71 63.9085 225.809 64.291 226.007 64.624C226.205 64.957 226.484 65.2135 226.844 65.3935C227.204 65.5735 227.618 65.6635 228.086 65.6635C228.491 65.6635 228.856 65.6005 229.18 65.4745C229.504 65.3485 229.792 65.1505 230.044 64.8805L230.948 65.92C230.624 66.298 230.215 66.5905 229.72 66.7975C229.234 66.9955 228.676 67.0945 228.046 67.0945ZM233.595 67.0945C233.289 67.0945 233.028 66.991 232.812 66.784C232.596 66.568 232.488 66.298 232.488 65.974C232.488 65.632 232.596 65.362 232.812 65.164C233.028 64.957 233.289 64.8535 233.595 64.8535C233.901 64.8535 234.162 64.957 234.378 65.164C234.594 65.362 234.702 65.632 234.702 65.974C234.702 66.298 234.594 66.568 234.378 66.784C234.162 66.991 233.901 67.0945 233.595 67.0945Z" fill="#F5F5F5"/>
</svg>
